<?xml version="1.0" encoding="UTF-8"?>
<svg id="Layer_1" xmlns="http://www.w3.org/2000/svg" version="1.1" viewBox="0 0 400 400">
  <!-- Generator: Adobe Illustrator 29.7.1, SVG Export Plug-In . SVG Version: 2.1.1 Build 8)  -->
  <path d="M173.2,392.5c0,0-.3-.4-.7-.4-18.8-2.6-37.8-7.2-56.5-10.6-22.6-4.2-45.3-7.8-67.6-12.8l-2-25.7c0-.6,3.7-1.2,4.6-1.6,5.4-2.2,9.9-8.1,5.3-13.4,3.7-3.6,6.4-9.2,1.8-13.3,3-.6,4.9-4.4,4.6-7.2s-1.5-3-1.8-4.5c3.2-1,4.9-4.4,4.7-7.7-.6-7.5-15-16.1-20.9-20.2-.4-.3-1-.4-1.4-.6l-.4-.8c-1.6-11.5-2-23.1-3.1-34.7s-2.7-30.7-5.5-45.8-.3-1,.1-1.1c27.9,5.1,55.9,9,83.8,14.1,19,3.5,38.5,7.1,57.4,11.2s11.6,2.2,16.4,3.6c.6.2,3.1,1,3.3,1.4,1.2,5.7.9,11.7,1.1,17.5.8,17.6,1.4,35.4,1.9,53.1s-.1,8.3,0,12.4c-5.6,0-11.3.4-16.7,2.2s-12.5,5.3-14.3,9-.8,8.3,3,10,1.5,0,1.8.5c-1.6,1.2-3.5,1.6-5.3,2.7-9.3,5.5-6.3,16.8,4.3,16.7-2.1,1.8-3.9,3.2-3.7,6.3.5,7.3,8.9,9.3,14.8,10.4,4.6.9,9.2.9,13.8,1.6s5.3.8,5.7,1.3l.2,26.6c-9.1-.8-20.1,1.1-28.9,0ZM99.5,223.3c.4-.4,4.5,1.4,5.8,0,1.3-1.8.6-3.8-1.3-4.8l-12.7-2.2c-.7-.1-4.4,0-4.5.8l1.4,4.6,7,.7c-.4,2,.3,4,.5,5.8.3,4.7.3,9.4.9,14s-.4,2.9,1.2,3.9c2.6,1.6,3.6-.8,3.5-3.1,0-3.6-1.2-8.8-1.4-12.6s.1-4.8-.5-7.2ZM113.5,246.9c-.2-2.6,0-5.7,0-8.4s-1.2-.8.2-.7,5.6.7,5.8,1c.3,2.7-1.1,12.6,3.1,12.5,2.4-.5,1.7-4.7,1.6-6.8-.2-3.7-.7-7.5-1-11.2s-.3-5.5-.6-8.3c-.5-1.8-3.3-3.2-4.2-1.1s0,4.9.1,5.7.7,2.3.5,3.5l-6.1-.5c-.3-2.8-.2-6.2-.6-9s-3.8-4.3-4.1-1.1.7,9.5,1,14-.2,5.3,0,7.9,1.5,6.8,4.6,3.2c0-.5-.4-.7-.4-.9ZM139.9,231.2c.3-.4.6-2.2.5-2.8-.6-3.3-8.3-2.3-10.9-3.6-3.5-.8-2.7,3.4-2.6,5.8s.8,7,1,10.2-.8,10.5,1.4,11.7l12.8,2.6c1.5-.1,1.9-2.7,1.6-3.9-.9-3-8.7-2.3-11.1-3.8,0-1.5,0-3.1,0-4.6s-1-2.1.5-1.9c2.1.3,4.8,2,6.5,0s1.3-3.2-.3-3.9-7.3-1.3-7.6-1.5v-4.7c.4-.5,7,1.9,8.3.4ZM58.9,251.3c.3-.3,7.5,1.6,9.1,1.4,3-.3,2.8-4.4.3-5.5s-9-1-12.6-2.3c-2.5,0-2.1,2.9-2,4.8.3,4.1.8,8.4,1,12.6s-.5,10.4.8,15.5l.4.6c3.3,1,6.7,1.4,10.1,1.9s2.4,1,3.6.6c2.2-.6,2.2-3.9.5-5.2s-7.6-1.5-10.3-2.1c.3-2.5-.2-4.9-.4-7.3s-.2-1.9,1.3-1.7c2.7.4,8.8,3,8.5-1.5s-6.6-3.8-9.8-4.5l-.5-7.4ZM78.5,281.4v-10.3c0-.2-.8-.9-.5-1.6,3.4,0,6.5,1,9.3-1.7,5.2-4.9,1.9-15.2-4.4-17.9s-7.3-2.2-8.8-1.8-1.2,1.1-1.3,2c-.8,6.9.6,14.1,1,21,.2,3.6-1.7,14.8,4.7,10.3ZM96.5,252.3c-5.7,1-7.2,8.5-4.9,13.1,2.3,4.6,7.8,5.3,10.2,8.9,1.9,2.9,1.6,7.1-2.6,6.8-3.7-.3-4.4-8.9-8.4-4.2-1,1.9,2.6,6.7,4.2,7.9,4.2,3.1,10.4,2,12.2-3.2s-1-11-5-13.8-1.8-.8-2.5-1.3c-3-2.1-6.2-4.5-3.4-8.4,4-2.1,4.5,3,7.5,4.1,3.6-1.4,2.2-4.3.2-6.6s-4.6-3.9-7.6-3.4ZM121.8,263c.3-.3,3.7.9,4.5.9,2.3.2,3.5-4.3.5-5.7l-16-3.2-2.5.6c-1.2,1.5-.4,4.5,1.3,5.3s6.6.8,7,1.2c-.3,1.6.4,3,.5,4.4.2,3.6-.1,7.5,0,11.2s-.1,4.4,0,6,.7,3.3.7,4.9c1.8,2.8,4.2,1.7,4.5-1.6.5-5.6-.4-11.8-.5-17.2s0-4.5,0-6.8ZM137.2,287.7v-8.9c2.7-.3,9.7,3.5,9.4-1.6s-6.7-3.6-9.4-4.4v-7.5c2.3,0,6.7,2,8.6,1.9s2.8-3.8,1.5-5-10.2-2.3-12.7-3.4c-1.1,0-1.7.7-2.3,1.4v30.8c.1.4.4.8.7,1.1,1,.9,10.1,2.8,11.9,3,2.8.3,4.6-.1,3.8-3.4s-8.7-2.8-11.6-4.1ZM152.5,262.5c-.8.3-1.2,1.7-1.2,2.5-.9,9.1.7,19.7,0,28.9,0,2.7,4.2,3.7,4.7.9l-.2-30.6c-.4-1.3-1.9-2-3.2-1.8ZM164.8,296.3v-19.3l6.8,12.6c1,2,3.9,9.3,5.3,10,2,1.1,3.7-.8,3.8-2.8-.7-8.2.9-17.6,0-25.6s-1-4.9-3.9-3.9c-.4.1-1.2,1.4-1.2,1.6v16.8c0,.1.9.6.2.7h-.7c-2.8-5.7-5.4-12.2-8.6-17.7s-2.2-3.8-3.4-4.1-3,.3-3,2v29.9c.2,1.1,1.2,1.6,2.2,2,.9.1,2.3-1.2,2.5-2ZM81.7,295.1l11,2.1c3-.9,2.8-4.3,0-5.5-1.8-.9-7.3-1.7-9.6-2.1s-5.5-1.7-6.4,1.2c-1.1,3.3.4,9.7-.2,13.3,1.1,5.5-.2,11.8.5,17.2.6,4.3,4.7,4.7,5.1.5s-.9-8.6-.5-12.8l9.1,1.8c2.7-.2,3.4-4.1,1.1-5.3s-7-1.3-9.5-1.7l-.8-.6v-8.2ZM99.3,293.3c-.8.2-.7.9-.8,1.6-.7,8.5.3,17.5.4,26,0,3-1.5,6.2,3.1,6.9l1.2-.7c1.2-1.5,0-5.9,0-7.9-.2-7.1.7-15.5,0-22.4s-.4-2.2-.9-2.8c-.8-.6-2-.9-3-.7ZM113,324v-24.9c.1-3.3-3.4-6.9-4.7-2.3v31.2c.5,1,1.4,1.2,2.3,1.5s8.3,1.7,9.1,1.6c1.5-.2,2.4-2,2.1-3.5-.5-3-6.5-3.1-8.9-3.5ZM128.8,304.4c4.2-.2,13.8,4.6,10.8-3.5-1.3-1.6-11-2-13.3-3l-1.9.9c-.2,10.7-.8,21.8.7,32.3.9,1.4,10.7,1.9,12.9,2.7,2.6.2,3.9-2.7,2.3-4.7s-8.5-2.1-11-2.3l-.5-9.8c2.3,0,7.5,2.3,9.1.5s.8-3.9-.5-4.6-6.3-.9-8.6-1.5v-7ZM148.8,302.2c-4.7.7-6.6,6.1-5.8,10.3,1.2,7.1,10.6,7.7,11.5,13.3s-1.8,4.8-4.8,4.3-2.6-4.2-3.8-4.6-3.1-.2-3.7.9c-.5,3.6,2.7,7.2,6.1,8.4,10.4,3.8,14-8.1,8.4-15.4-2.3-2.9-5.8-3.5-7.9-6.1-3-3.8,1-7.6,4.2-4.7,1.2,1.1,1.7,3.7,4,2.6s.5-5.6-1.4-7-5-2.3-6.6-2Z"/>
  <path d="M223.5,392.5c3.4-3.5,6.3-6.9,8.8-11,7.7-12.7,11.8-24.3,13.6-39.1s1.1-7.2-2.3-10.2c-.2-1.1,1-.8,1.6-.7,4.1.3,5.1,1.8,7.7,4.5.3.6,1,4.7,1,5.5,0,11.8-4.8,32-9.9,42.8-1.3,2.8-3.3,5.4-4.6,8.2h-15.9Z"/>
  <path d="M307,140.9l6.5,2.6c-.8.4-1.5.4-2.3.9-2.5,1.7-8.6,9.3-9.3,12.2s0,2.6,1.5,3c1.5,0,3.1-4,4-5.3s1.7-2.3,2.5-3.1,2.8-3.1,3.5-2.3c.5,3.4-.9,8.2-3.4,10.6s-5.6,1.7-4.9,4.8c2,1,2.9,1.2,5,.1,5.4-2.8,8.9-11,7.4-16.9s-1.4-2-1.2-3.2c1.9-.3,3.6.4,5.3.5s4.4-.5,6.8-.5c0,.4,0,.8,0,1.2-.3,2.3-3.9,10.6-5,13.2-3.1,7.1-10.5,21.4-19.9,20.2s-4.1-4.5-6.4-8.8h-2.2c-.4.8-.5,1.6-.5,2.5-.5,6.3.9,12.5,0,18.6-1.4,9.5-6.1,19.4-13,26.1,2.1,2.8,5.3,0,7-1.9,6.5-7.5,10.9-20.5,11.2-30.3,0-1.3-.8-2.4.2-3,2.9,1.7,5.6,1.4,8.6.5-.8,1.5-.3,3.2-.5,4.9-2.4,18.6-15.8,32.3-30.3,42.9-18.2,13.3-39.7,21.6-62.5,21.3,0-2.1-.1-4.2,0-6.3.2-4.9,0-8.3,0-13s.9-16-1.1-20.8-5.4-4.9-9.5-5.9c-14.7-3.9-29.8-4.6-44.6-7.6-5.8-1.2-7.1-4.5-9-9.6s-.7-6.3-4.1-4.3c-1,1.5.6,7.6,1.4,9.4s1.6,1.6,1.6,2.8l-8.6-1.9c-1.4-1.4-3.5-10.1-3.9-12.4-2.7-17.2,8.1-38.5,13.8-54.6,7-19.6,11-41.3,19.5-60.2s2.5-4.3,3-6.5c2,.8,4,1.5,6.1,2.1,18.8,5.6,39.5,9.7,59,7.2s38.2-12.7,53.1-3.6c3.3,2,6.8,5.8,6.9,9.9s-3.2,12.8-4.6,17.8c-3.2,12.2-4.9,25.2,1.7,36.7s5.1,5.5,7.9,8.4c-1.1,1.5-1.3,4.5-1.1,6.3l1.4.5c1.7-.2,2.8-3.2,3-4.7ZM164.9,92.2c4.2,4.6,14.7,5.8,20.6,5.2,11.7-1.1,17.9-8,17.1-19.8-.2-2.3-1.1-8.4-4.7-6.5s-1.9,3-2.6,3.9c-4.1,5.3-9.5,8.8-16.3,9.4s-10.7-.8-13.3.7-2.7,5-.8,7.1ZM208,71.9c-1.6.5-3.9,7-4.3,8.8-.8,3.3-1.2,7.1,0,10.3s2.4,4.6,4.2,2.8-.7-2.9-1.1-4.5c-1.2-5.4,1.5-11.4,3.7-16.2l-.8-1.1c-.6-.1-1.2-.1-1.7,0ZM219.2,73.9c-3,.1-4.9,2.5-6.1,5-6.1,13,8.7,22.8,19.1,26.5,8.1,2.9,19.5,3.8,27.4-.1s5.1-2.9,4.6-6.2-6.5-1.5-8.6-1.6c-9.9-.8-24.4-9.3-30.5-17s-2.7-6.8-5.7-6.6ZM167,98.1c-.3-.3-1.4-.8-1.7-.6-1.6,2.3,0,5,1.8,6.8-2.2,3.5-3.2,6.9-2.1,10.9s2.6,2.8.5,6.5c-3.9,6.6-11.4,14.4-8.3,22.8,2.2,5.9,10.4,6.2,14.4,2s6.2-15.8,7-23.3c2.7-3.1,7-3.9,9.6-7.2,1.7-2.3,1.8-4.9,2.1-7.7,3.2-1.1,5.3-3.6,6.3-6.7-1.4-3.6-3.6.2-5.7,1.3-7.6,3.7-16.8,1.4-23.2-3.6s-.4-.8-.6-1ZM203.5,104c-.7,0-1.1,0-1.7.4-.8.7-2.5,6.8-3.2,8.4-4.1,9.5-13,16.4-13.5,27.5-9.5,7.3-17.3,15.5-23.8,25.7s-4.2,6.7-3.8,7.4,1,1.2,1.7.7,2.4-4.3,3.1-5.3c4.2-6.2,11.8-14.9,17.4-19.9s5.4-4.7,6.1-3.9c.7,3.4,4.1,5.8,7.2,7.1,6.9,2.8,15.6-.5,20.1-6.2s2.4-4.4,4-6c2.3,4,4.7,8,6.6,12.3,4.7,10.3,10.9,27.7,12,38.8.2,2-.2,4.1,0,6s1.7,0,2.1-.7.3-5.4.2-6.8c-.8-12.6-5.8-27.8-11.1-39.2-2-4.4-8-15.1-12-17.3s-4.5-.9-3.9,1.5,3.7,1.2,1.6,5.9c-3.4,7.7-16.2,13.3-22.2,5.4s-1.9-8-.4-12c2.5-6.7,7.7-11.8,10.7-18.2s4.2-9.8,2.7-11.5ZM230.9,133c1.7,1.6-.7,9.8-.8,12.2-.5,6.3,1.6,18.9,10,18.7s7.4-11.1,6.2-16.6-3.8-8.9-3-11.8,4.9-2.5,6.6-3.6c4.3-2.8,4.2-8.7,4.1-13.1.3-1.1,4.3-2,4.1-4.2-.4-1-.7-1.9-1.9-1.6s-3.4,1.7-5,2.1c-7.8,2-19.4,0-25.7-5.1-1.6-1.3-3.1-3.5-4.6-4.7s-.8-.9-1.6-.7c-1.9.5.3,5.6,1.6,6.3-1.3,2.5-3,5.9-2.7,8.8.4,4.3,5.2,10.5,9.2,12.3s3.3.7,3.8,1.1ZM273.4,118.5c-2.2-1.3-4.4-2.2-6.8-2.7s-4.8-1.3-5.2,0c-.6,2,3.7,1.9,5.1,2.3,2.2.6,4.4,2.1,6.3,2.5s.6-1.5.6-2.2ZM269.2,129.7l1.2-.5c.7-1-1.3-4-2.1-4.9s-5.5-4.7-6.8-4.4c-2.7.7,2.9,3.9,3.2,4.2,1.7,1.4,3.6,3.5,4.4,5.6ZM230,199.1c.6-5.2-2.1-10.2-4.7-14.5-4.2-7.1-8.8-12.1-15.9-16.3-17.7-10.2-36.3-10.5-47.3,8.8-1.1,1.9-4.3,6.7-.5,6.9,2.1-2.8,3.6-6,5.8-8.7,9.8-11.5,21.1-12.2,34.5-6.4,10.2,4.4,18.1,12.4,22.8,22.5s2,6.7,2.7,7.6.7.7,1.2.7l1.6-.5ZM207.3,192c.3.3,1.7.8,2,.1,1.8-12.3-12.1-21-23.2-19s-5.9,4.2-8.3,6.7-1.7,1.2-2.6,2.1c-1.7,1.8-5.1,7.5-3.4,9.7,3.6,1.7,2.7-.3,3.5-2.6,1.4-4.2,4.1-5.6,6.9-8.5s.8-1.4,1.4-1.9c3.3-3,10-1.7,13.8-.2s6.4,4.3,8,7.8c.5,1.2,1.5,5.4,1.9,5.8ZM182.9,191.6c-.9,0-.9-.2-.9.7,0,1.7.8,3.6,1,5.3h1.8s-1.9-6-1.9-6ZM196,194c-.6-.6-3.2,2.7-3.5,3.3s0,1.3.5,1.4c1.1.2,3.4-4.2,3-4.7ZM218.5,220.6c-2,2.5,2.5,4.2,4.5,4.5,7.4,1.1,15.2-1.7,20.9-6.4s5.7-5.4,3-6.8-2.4,1.2-3.5,2.1c-4.1,3.4-10.9,7.5-16.3,7.5-1.8,0-7.6-2.1-8.5-.9Z"/>
  <path d="M251.5,379.9c.7-4.7,2.5-9.2,3.6-13.9,1.8-7.7,3.1-16.7,3.4-24.5s0-4.5-.5-6.8c1.2.1,2.1.8,3.2,1.2,12.2,3.6,24.5,7.4,36.9,10.7,11.1,3,26.7,4.6,35.5,12.1,1.6,1.4,4.8,5.9,6.7,5.8,3.4-.3.7-4.5-.4-6-6.6-8.8-21.5-12.7-31.8-14.8-.8-.2-1.6-.1-2.5-.1,0-.6.7-.8,1.1-1,5.2-3.1,12.4-3.2,18.2-2.1,2.1.4,4.2,1.7,6.6,1.3,2.5-3.7-1.4-4.7-4.4-5.4-6.8-1.7-17.7-1.2-23.2,3.6-.8.7-1.4,3.3-3.2,1.7l-.2-.7c4.2-13.7,8.2-27.6,13.8-40.8,7.7-18.6,19.7-36,38.9-44,4.3-1.8,7.1-1.7,11.3-2.7,2.9-.6,2-3.7-.8-3.7s-1.5.5-2.3.5c-6.8.4-10.8,1.8-16.7,5.2-22.1,12.7-32.1,34-40.4,57-3.3,9.1-6,18.5-8.9,27.7l-15.9-4.7c1.4-5,3.4-10.1,6.2-14.6,1.2-1.9,2.8-3.8,4.1-5.7,4.7-6.6,9.8-13.1,14.2-19.8s1.9-4.1,2.8-5.1.8.1,1.2-.2c-1-2,.7-4.2.5-6.5-.4-4.3-4.7-8.2-8.4-9.8-1.2-.5-2.3-.9-3.7-.7v-1.4c1.8.4,4.8-.4,6.6-1s8-3.4,8.5-4.6-.1-.9-.3-1.4c1.6.6,2.5-2.4,2.7-3.6,2.2-13,4.5-25.9,5.7-39.1,0-.9.5-1.7.5-2.6.5.2,1.1.4,1.7.3,2.5-.2,7.4-3.5,9.7-5.1s3.4-3.1,4-3.4,1.7,0,1.9,0c2.8,2.4,6.1,4.4,8.9,6.9,4.6,4.2,9.8,10.1,14.2,14.7,5.5,5.7,11.2,11.4,15.6,17.9.1,4.9-1.7,9.4-2.7,14.1-1.8,8.4-1,10.4-.3,18.6,1.6,18.1,2.3,37.3-.3,55.4-3.1,21.3-8.1,38.4-29.6,47.4-20.9,8.7-52.6,5-74-.8-6-1.6-11.7-4.4-17.7-5.9Z"/>
  <path d="M324.9,52.7c1,1,4.2.4,5.7.6,4.2.6,8.2,1.5,10.7,5.1,7.9,11,3.3,24.8,2.6,37-.7,12.1.4,24.3,9.8,32.9-1.5.5-2.6,1.8-4.1,2.7-11,6.7-25.7,11.7-38.2,6.7s-17.9-26.8-13.4-42.5,3.8-10,4.8-14.8c1.7-8.4-2.2-14-9.3-18-15.2-8.6-34-.8-49.8,1.9-20.2,3.5-39.8.6-59.2-5.3-10.9-3.3-27.2-9.2-34.6-18.1-2.8-3.4-7.2-12.3-6-16.7s.6-.9.9-.5c.7.4,1.4.8,2.2,1.1,18.4,6.6,43.7-6.4,61.6-11.4,26.9-7.5,57.9-9.6,83.9,2.1s27.4,17.1,31.2,31.3c.3,1.3.8,5.5,1.3,6Z"/>
  <path d="M288.2,298.7c-6,7.1-11.7,14.5-17.3,22.1s-4.8,6.8-7.1,10.2c-2.7-.1-4.9-2.2-7.7-1.2s-1.5,1.3-2,1.2c-1.4-2.5-4.6-4-7.5-4.2s-3.8.5-4.8.1c-1.4-.6-3-3.3-3.8-4.6s-2.5-3.9-2.2-5.3l17-34.3,17.8-31.1c3-.7,6.5-1.6,9.5-2.7,5.5-2.1,14.1-7.7,19-11.3s8.2-8.6,11.9-12.8c1.2-1.4,2.8-2.3,4-3.7l-3.3,27.2-2.5,11.9-.6.4c-7.5,1.1-14.8,3.2-22.3,4.3-1.7.3-4-.5-5.3,1.2-.4,1.2,1.8,3.6,2.8,4.6,4.8,5.4,10.7,9.9,14.9,15.9-3.5,4-7,8.1-10.4,12.2ZM297.5,286.3c-.3,0-.3.5,0,.5s.3-.5,0-.5Z"/>
  <path d="M215,331.9c.2-.2.3-.8.4-1.1-.2-2-6.4-4.1-8.2-4.7-4.3-1.3-10.2-2.3-14.7-2.6-5.5-.3-12.6.7-17.7,0s-4.4-2.6-3.8-4.7c1-3.3,10.6-6.8,13.8-7.7,9.3-2.5,20.5-1.8,30-.2s4.5,1.9,6.8.9c.4-1.8-.9-2.7-2.3-3.5s-4.4-1.2-4.6-1.9c-.7-2.3.9-5.1,0-7.2.4-.4,3.1.8,3.7,1.1,8.1,4,13.1,19.8,17.6,27.6,1.4,2.5,6.3,8.4,6.4,10.6s-1.2,8.5-1.9,11.4c-1.4,6.4-4,14.3-7.1,20s-3.1,5.5-7.9,6.1c-6.3.7-12.5-1.2-16.5-6.3-2.8-3.6-1.6-6.4-7-8.4s-14.5-1.5-20.6-2.7c-2.1-.4-8-2.6-9-4.5s.7-4.8,2.9-5.5c7.1-2.2,17.2-2.6,24.5-1.4s8.2,2.4,9.9,2.2c2.6-.3,1.6-2.8-.2-4-4.9-3-17.8-3.9-23.5-3.5-5.8.3-12.4,2.3-18-.7-7.4-4,2-9.1,6.2-10.6,11.3-4.2,22.1-3.2,33.6-.2,1.8.5,5.8,2.6,7.3,1.2Z"/>
  <path d="M210.9,306.3l-2.8-.8c.1-4.2,0-8.4,0-12.5.6-24.6.5-49.4.5-74.1-.6-3.1-2.4-1.4-3,.8-1.2,4.4-.2,8.2-.3,12.3,0,1.9-.5,4.1-.5,6-.3,22.4.3,44.9,0,67.4h-2.3c0-3.8.1-7.6,0-11.4-.6-21.5-1-43.3-2.4-64.8-.3-4.3.9-7.8-3.3-10.7-2.9-2-11.9-3.5-15.7-4.3-41.8-9.2-84.1-15.3-126.2-22.6-5.1-.9-10.5-1.8-15.5-3.2-.9-2.7-.9-5.6-.5-8.4,3.2-1.5,6.9-.9,10.2-.4,17.7,2.6,36.6,8.2,54.3,11.9,30.4,6.3,61.2,10.1,91.6,16.1,3,.6,12.5,2.2,14.3,3.8s1.3,7.2,1.4,9.8c.9,16.1.3,32.4.5,48.4s-.3,24.4-.5,36.6Z"/>
  <path d="M346.2,188.9c-1.8.4-4.9,3.2-6.7,2.7-3.1-.9-8-8.3-9.3-11.3s-1.1-5.5-2.9-5,.3,5.9.8,7.1c1.2,3.2,3.1,5.7,5.2,8.3l4,3.5c-6.6,4.3-16.7,3.3-21.9-2.8s-3.1-7-3.2-10.4c4.6-2.6,8.1-7.4,10.7-11.9,4.7-8.1,7.8-17,10.4-26l10.3-4.2c.5.3.3,1.5.2,2.1-1.7,13-7.2,26.2-2.5,39.4l4.9,8.4Z"/>
  <path d="M272,239.7l-28.4,49.9-17.3-34c10.6-.6,21.2-4,31-8l14.8-7.9Z"/>
  <path d="M241.6,293.3c.3.4,0,1.3-.1,1.8-1.6,4.9-6,10.5-7.6,15.7l-1,1.1c-2.1-6.3-6.4-11.8-12.1-15.2.1-5.5,0-11-1.4-16.3l.2-.7,10.1-8.4,9.2,19c.6.8,1.2,1.7,1.8,2.5s1,.4,1.1.6Z"/>
  <path d="M57.8,289.7c.6.6,2.7,3.7,2.8,4.4,1.6,7-4.6,6.1-9.3,5.1-6.9-1.4-21.5-7.2-22.7-15.1s4.7-8.5,8.3-7.8,10.4,5.8,13.2,7.8,6,4,7.6,5.7Z"/>
  <path d="M57.4,305.9c1.8,3.5-.2,5.3-3.3,6.5-5.9,2.4-21.9,0-26.9-4.1s-3.6-11.8,3-13.7c8.4,5.4,17.8,8.4,27.2,11.3Z"/>
  <path d="M28.4,313.8l14.4,3.6,12.5.6.7.7c.4,6.4-7.4,9.2-12.7,9.5-4.4.3-12.4-1.4-15.4-4.7s-2.6-7.8.5-9.7Z"/>
  <path d="M156.8,97c-1.1.2-.7-.1-1-.6-3.3-5.5-.4-18.6,1.6-24.7s2.8-7.9,4.3-11.5,1-2.6,1.5-3.6-.1-.8.7-.5c1.6.5,3.7,2.1,5.6,2.4l.7,1c-6.8,11.5-10.5,24.6-13.5,37.6Z"/>
  <path d="M222.1,256.4c.9,3.7,3.9,6.9,5.5,10.5-3.7,4-7.7,7.8-12.5,10.5v-21h7Z"/>
  <path d="M31.8,330.5c4.8,1,9.3,1.8,14.2,1.4s6.9-2.9,7.6.3-2.5,5.4-5.6,6.3c-6.8,2.1-17.4,1.4-16.2-8.1Z"/>
  <polygon points="206.7 372.5 209.4 376.8 209.1 390.9 206.5 391.6 205.8 372.7 206.7 372.5"/>
  <path d="M212.8,378.6l2.7,1.5c0,3.4.4,6.9-.4,10.1h-2.8c-.2-.2.5-.6.5-.7v-11Z"/>
  <path d="M229.1,380c-2,2.5-3.2,5.7-6.1,7.5-.7-2.1-1.5-4.2-1.4-6.5l7.5-.9Z"/>
  <path d="M217,294.2h-1.9c0-3.6.8-7.1.5-10.7l.9,4,.5,6.7Z"/>
  <path d="M78,254.1c3.9.7,7,1.8,7,6.3s-3.3,4.3-7,3.5v-9.8Z"/>
  <path d="M251.5,119.9c-.2,2.7-.3,6.7-2.1,8.8s-7.6,1.7-8.5,5.9,2.6,11.7,3.1,16.7c.3,2.7,0,8.5-3.5,9s-6.1-3.7-7-7.4-.9-6.5-.7-9.6,2.6-8.1.5-11.2-4.5-1.9-7-3.8c-4.9-3.6-7.3-9.3-4.7-15.1,1.1.9,1.7,2.1,2.8,3,6.7,5.9,18.9,6,27.1,3.5Z"/>
  <path d="M188.1,108.7c0,4.8-3.6,8.3-7.6,10.3s-3.9,0-5.2,2.8-.5,4.8-.8,7.6-4.1,15-7.7,15.7-5.6,0-6.5-1.9c-1.3-2.7,1.6-9.3,2.9-12s6.9-9.7,6.1-12.9-1.2-1.7-1.5-2.7c-1-2.5-1-6.5.5-8.9s.6-.5,1.2-.2c1,.5,2,1.4,3.3,1.9,4.6,1.7,10.8,1.7,15.4.2Z"/>
  <path d="M259.4,100.8c-.3.9-1.5,1.3-2.3,1.6-10.8,4.6-26.4-.2-35.4-7s-9-12.6-2.8-17.9c1.6,4,5.4,7.9,8.6,10.7,8.6,7.3,20.5,13,31.9,12.6Z"/>
  <path d="M167.6,87.2h13.3c3.3,0,11.2-4,13.8-6.3s2.6-3.5,4.2-4.9c-.5,1.9.5,4.1.5,5.8-.1,4.6-3.8,8.7-7.8,10.4-6.1,2.5-13.8,2.5-19.8,0s-4.6-2.2-4.1-5Z"/>
</svg>